<svg width="12.447937" height="12.452827" viewBox="0 0 12.4479 12.4528" fill="none" xmlns="http://www.w3.org/2000/svg" xmlns:xlink="http://www.w3.org/1999/xlink">

	<path d="M7.97913 6.22641L12.0745 2.12943C12.311 1.90528 12.4479 1.59396 12.4479 1.24528C12.4479 0.560379 11.8878 0 11.2031 0C10.8546 0 10.5434 0.136982 10.3193 0.361134L6.22394 4.47057L2.1286 0.361134C1.90454 0.136982 1.59332 0 1.24481 0C0.560181 0 0 0.560379 0 1.24528C0 1.59396 0.136902 1.90528 0.360962 2.12943L4.46881 6.22641L0.373413 10.3234C0.136902 10.5475 0 10.8589 0 11.2075C0 11.8925 0.560181 12.4528 1.24481 12.4528C1.59332 12.4528 1.90454 12.3158 2.1286 12.0917L6.22394 7.98226L10.3193 12.0792C10.5434 12.3158 10.8546 12.4528 11.2031 12.4528C11.8878 12.4528 12.4479 11.8925 12.4479 11.2075C12.4479 10.8589 12.311 10.5475 12.0869 10.3234L7.97913 6.22641Z" fill-rule="evenodd" fill="#BCBCBC"/>
</svg>
